<svg width="18" height="19" viewBox="0 0 18 19" fill="none" xmlns="http://www.w3.org/2000/svg">
<path d="M9 0.805176C7.21997 0.805176 5.47991 1.33302 3.99987 2.32195C2.51983 3.31088 1.36628 4.71649 0.685088 6.36102C0.00389956 8.00556 -0.17433 9.81516 0.172936 11.561C0.520203 13.3068 1.37737 14.9105 2.63604 16.1691C3.89471 17.4278 5.49836 18.285 7.24419 18.6322C8.99002 18.9795 10.7996 18.8013 12.4442 18.1201C14.0887 17.4389 15.4943 16.2853 16.4832 14.8053C17.4722 13.3253 18 11.5852 18 9.80517C17.9975 7.419 17.0485 5.13128 15.3612 3.444C13.6739 1.75672 11.3862 0.807696 9 0.805176ZM13.8462 10.4975H9C8.81639 10.4975 8.6403 10.4245 8.51047 10.2947C8.38063 10.1649 8.30769 9.98878 8.30769 9.80517V4.95902C8.30769 4.77541 8.38063 4.59932 8.51047 4.46949C8.6403 4.33965 8.81639 4.26671 9 4.26671C9.18361 4.26671 9.3597 4.33965 9.48954 4.46949C9.61937 4.59932 9.69231 4.77541 9.69231 4.95902V9.11287H13.8462C14.0298 9.11287 14.2059 9.18581 14.3357 9.31564C14.4655 9.44547 14.5385 9.62156 14.5385 9.80517C14.5385 9.98878 14.4655 10.1649 14.3357 10.2947C14.2059 10.4245 14.0298 10.4975 13.8462 10.4975Z" fill="#3F3F3F"/>
</svg>
