<svg width="40" height="40" viewBox="0 0 40 40" fill="none" xmlns="http://www.w3.org/2000/svg">
<path fill-rule="evenodd" clip-rule="evenodd" d="M7.54549 7.54549C7.71796 7.37257 7.92285 7.23539 8.14843 7.14178C8.37401 7.04818 8.61583 7 8.86006 7C9.10428 7 9.34611 7.04818 9.57168 7.14178C9.79726 7.23539 10.0022 7.37257 10.1746 7.54549L20.0005 17.3751L29.8263 7.54549C29.999 7.37285 30.2039 7.23591 30.4295 7.14249C30.655 7.04906 30.8968 7.00097 31.1409 7.00097C31.3851 7.00097 31.6268 7.04906 31.8524 7.14249C32.0779 7.23591 32.2829 7.37285 32.4555 7.54549C32.6281 7.71812 32.7651 7.92306 32.8585 8.14862C32.9519 8.37417 33 8.61592 33 8.86006C33 9.10419 32.9519 9.34594 32.8585 9.5715C32.7651 9.79705 32.6281 10.002 32.4555 10.1746L22.6259 20.0005L32.4555 29.8263C32.6281 29.999 32.7651 30.2039 32.8585 30.4295C32.9519 30.655 33 30.8968 33 31.1409C33 31.3851 32.9519 31.6268 32.8585 31.8524C32.7651 32.0779 32.6281 32.2829 32.4555 32.4555C32.2829 32.6281 32.0779 32.7651 31.8524 32.8585C31.6268 32.9519 31.3851 33 31.1409 33C30.8968 33 30.655 32.9519 30.4295 32.8585C30.2039 32.7651 29.999 32.6281 29.8263 32.4555L20.0005 22.6259L10.1746 32.4555C10.002 32.6281 9.79705 32.7651 9.5715 32.8585C9.34594 32.9519 9.10419 33 8.86006 33C8.61592 33 8.37417 32.9519 8.14862 32.8585C7.92306 32.7651 7.71812 32.6281 7.54549 32.4555C7.37285 32.2829 7.23591 32.0779 7.14249 31.8524C7.04906 31.6268 7.00097 31.3851 7.00097 31.1409C7.00097 30.8968 7.04906 30.655 7.14249 30.4295C7.23591 30.2039 7.37285 29.999 7.54549 29.8263L17.3751 20.0005L7.54549 10.1746C7.37257 10.0022 7.23539 9.79726 7.14178 9.57168C7.04818 9.34611 7 9.10428 7 8.86006C7 8.61583 7.04818 8.37401 7.14178 8.14843C7.23539 7.92285 7.37257 7.71796 7.54549 7.54549Z" fill="#3F3F3F" fill-opacity="0.7"/>
</svg>
