<svg width="28" height="28" viewBox="0 0 28 28" fill="none" xmlns="http://www.w3.org/2000/svg">
<path d="M6.22233 14.7779V8.55566H3.889C3.27016 8.55566 2.67667 8.8015 2.23908 9.23908C1.8015 9.67667 1.55566 10.2702 1.55566 10.889V24.889C1.55682 25.0334 1.59818 25.1747 1.67511 25.297C1.75204 25.4192 1.8615 25.5177 1.99122 25.5812C2.11619 25.6381 2.25398 25.6608 2.39059 25.6471C2.5272 25.6335 2.65775 25.5839 2.769 25.5034L6.77455 22.5557H17.2279C17.5227 22.5644 17.8161 22.5125 18.09 22.4032C18.3639 22.2939 18.6125 22.1295 18.8203 21.9202C19.0281 21.711 19.1907 21.4613 19.2981 21.1866C19.4055 20.9119 19.4553 20.6182 19.4446 20.3234V19.4446H10.889C9.65132 19.4446 8.46434 18.9529 7.58917 18.0777C6.714 17.2025 6.22233 16.0156 6.22233 14.7779Z" fill="#FDFEFE"/>
<path d="M24.1112 3.11133H10.889C10.2702 3.11133 9.67667 3.35716 9.23908 3.79475C8.8015 4.23233 8.55566 4.82582 8.55566 5.44466V14.778C8.55566 15.3968 8.8015 15.9903 9.23908 16.4279C9.67667 16.8655 10.2702 17.1113 10.889 17.1113H21.4279L25.1457 19.9969C25.2562 20.0786 25.3864 20.1296 25.523 20.1446C25.6596 20.1596 25.7978 20.1382 25.9234 20.0824C26.0558 20.0194 26.1676 19.9202 26.2461 19.7964C26.3245 19.6725 26.3664 19.529 26.3668 19.3824V5.44466C26.3671 4.83907 26.132 4.25706 25.7111 3.82165C25.2902 3.38623 24.7165 3.13151 24.1112 3.11133Z" fill="#FDFEFE"/>
</svg>
