<svg width="16" height="21" viewBox="0 0 16 21" fill="none" xmlns="http://www.w3.org/2000/svg">
<path d="M0 1.90909V19.3972C0 19.9301 0.454167 20.3636 1.0125 20.3636C1.22083 20.3636 1.425 20.304 1.59583 20.1886L8 15.9091L14.4042 20.1886C14.575 20.304 14.7792 20.3636 14.9875 20.3636C15.5458 20.3636 16 19.9301 16 19.3972V1.90909C16 0.855114 15.1042 0 14 0H2C0.895833 0 0 0.855114 0 1.90909Z" fill="#3F3F3F"/>
<path d="M1.04022 19.3572L1.03695 19.3594L1.03677 19.3595C1.03631 19.3597 1.035 19.3603 1.03266 19.361C1.02831 19.3623 1.02145 19.3636 1.0125 19.3636C1.00734 19.3636 1.00323 19.3631 1 19.3624V1.90909C1 1.45073 1.40377 1 2 1H14C14.5962 1 15 1.45073 15 1.90909V19.3624C14.9968 19.3631 14.9927 19.3636 14.9875 19.3636C14.9786 19.3636 14.9717 19.3623 14.9673 19.361C14.9654 19.3604 14.9641 19.3599 14.9635 19.3596C14.9634 19.3596 14.9633 19.3596 14.9633 19.3595L14.9598 19.3572L8.55561 15.0776L8 14.7064L7.44439 15.0776L1.04022 19.3572Z" stroke="#3F3F3F" stroke-opacity="0.5" stroke-width="2"/>
</svg>
