<svg width="22" height="23" viewBox="0 0 22 23" fill="none" xmlns="http://www.w3.org/2000/svg">
<path d="M12.7722 0.641032C12.2763 0.227049 11.6486 0 11 0C10.3514 0 9.72371 0.227049 9.22778 0.641032L0.977778 7.53515C0.671561 7.79076 0.425406 8.10953 0.256517 8.46918C0.0876284 8.82882 8.27796e-05 9.22066 0 9.6173V20.8815C0 22.0509 0.958222 23 2.13889 23H5.80556C6.37282 23 6.91686 22.7768 7.31798 22.3795C7.7191 21.9822 7.94444 21.4434 7.94444 20.8815V16.0357C7.94444 15.2125 8.60689 14.5443 9.43189 14.5225H12.5681C12.9663 14.5329 13.3446 14.6969 13.6224 14.9796C13.9003 15.2622 14.0557 15.6412 14.0556 16.0357V20.8815C14.0556 22.0509 15.0138 23 16.1944 23H19.8611C20.4284 23 20.9724 22.7768 21.3735 22.3795C21.7747 21.9822 22 21.4434 22 20.8815V9.61609C21.9999 9.21945 21.9124 8.82761 21.7435 8.46797C21.5746 8.10832 21.3284 7.78955 21.0222 7.53394L12.7722 0.641032Z" fill="#3F3F3F"/>
</svg>
