<svg width="31" height="31" viewBox="0 0 31 31" fill="none" xmlns="http://www.w3.org/2000/svg">
<path d="M15.4958 10.3311C12.6497 10.3311 10.3271 12.6538 10.3271 15.5C10.3271 18.3462 12.6497 20.6689 15.4958 20.6689C18.342 20.6689 20.6646 18.3462 20.6646 15.5C20.6646 12.6538 18.342 10.3311 15.4958 10.3311ZM30.9983 15.5C30.9983 13.3596 31.0177 11.2385 30.8975 9.10193C30.7773 6.62025 30.2111 4.41776 28.3964 2.60304C26.5779 0.784432 24.3793 0.222178 21.8977 0.101971C19.7573 -0.0182348 17.6362 0.00115338 15.4997 0.00115338C13.3593 0.00115338 11.2383 -0.0182348 9.10176 0.101971C6.62013 0.222178 4.41768 0.78831 2.60299 2.60304C0.784418 4.42164 0.222174 6.62025 0.10197 9.10193C-0.0182344 11.2424 0.00115335 13.3634 0.00115335 15.5C0.00115335 17.6366 -0.0182344 19.7615 0.10197 21.8981C0.222174 24.3797 0.788296 26.5822 2.60299 28.397C4.42156 30.2156 6.62013 30.7778 9.10176 30.898C11.2422 31.0182 13.3632 30.9988 15.4997 30.9988C17.6401 30.9988 19.7611 31.0182 21.8977 30.898C24.3793 30.7778 26.5817 30.2117 28.3964 28.397C30.215 26.5784 30.7773 24.3797 30.8975 21.8981C31.0215 19.7615 30.9983 17.6404 30.9983 15.5ZM15.4958 23.453C11.0948 23.453 7.54298 19.9011 7.54298 15.5C7.54298 11.0989 11.0948 7.547 15.4958 7.547C19.8969 7.547 23.4487 11.0989 23.4487 15.5C23.4487 19.9011 19.8969 23.453 15.4958 23.453ZM23.7744 9.07866C22.7468 9.07866 21.9171 8.24885 21.9171 7.22128C21.9171 6.19371 22.7468 5.3639 23.7744 5.3639C24.8019 5.3639 25.6317 6.19371 25.6317 7.22128C25.6321 7.46528 25.5842 7.70695 25.491 7.93243C25.3978 8.15792 25.261 8.3628 25.0884 8.53533C24.9159 8.70787 24.711 8.84467 24.4855 8.9379C24.2601 9.03113 24.0184 9.07897 23.7744 9.07866Z" fill="#3F3F3F"/>
</svg>
