<svg width="40" height="40" viewBox="0 0 40 40" fill="none" xmlns="http://www.w3.org/2000/svg">
<path d="M11.5533 9.12208C10.7047 8.67658 9.76316 9.52409 10.0539 10.4729L12.0955 17.1352C12.1356 17.2662 12.2093 17.383 12.3084 17.473C12.4076 17.5629 12.5284 17.6225 12.6577 17.6452L21.1361 19.1295C21.534 19.1992 21.534 19.7993 21.1361 19.869L12.6584 21.3525C12.529 21.3751 12.408 21.4346 12.3087 21.5246C12.2095 21.6145 12.1357 21.7315 12.0955 21.8625L10.0539 28.5271C9.76316 29.4759 10.7039 30.3234 11.5533 29.8779L29.4075 20.5065C30.1975 20.0918 30.1975 18.909 29.4075 18.4935L11.5533 9.12208Z" fill="#3F3F3F"/>
</svg>
