<svg width="21" height="24" viewBox="0 0 21 24" fill="none" xmlns="http://www.w3.org/2000/svg">
<path d="M17.5 24C16.5278 24 15.7014 23.65 15.0208 22.95C14.3403 22.25 14 21.4 14 20.4C14 20.26 14.0097 20.1148 14.0292 19.9644C14.0486 19.814 14.0778 19.6792 14.1167 19.56L5.89167 14.64C5.56111 14.94 5.19167 15.1752 4.78333 15.3456C4.375 15.516 3.94722 15.6008 3.5 15.6C2.52778 15.6 1.70139 15.25 1.02083 14.55C0.340278 13.85 0 13 0 12C0 11 0.340278 10.15 1.02083 9.45C1.70139 8.75 2.52778 8.4 3.5 8.4C3.94722 8.4 4.375 8.4852 4.78333 8.6556C5.19167 8.826 5.56111 9.0608 5.89167 9.36L14.1167 4.44C14.0778 4.32 14.0486 4.1852 14.0292 4.0356C14.0097 3.886 14 3.7408 14 3.6C14 2.6 14.3403 1.75 15.0208 1.05C15.7014 0.35 16.5278 0 17.5 0C18.4722 0 19.2986 0.35 19.9792 1.05C20.6597 1.75 21 2.6 21 3.6C21 4.6 20.6597 5.45 19.9792 6.15C19.2986 6.85 18.4722 7.2 17.5 7.2C17.0528 7.2 16.625 7.1152 16.2167 6.9456C15.8083 6.776 15.4389 6.5408 15.1083 6.24L6.88333 11.16C6.92222 11.28 6.95139 11.4152 6.97083 11.5656C6.99028 11.716 7 11.8608 7 12C7 12.14 6.99028 12.2852 6.97083 12.4356C6.95139 12.586 6.92222 12.7208 6.88333 12.84L15.1083 17.76C15.4389 17.46 15.8083 17.2252 16.2167 17.0556C16.625 16.886 17.0528 16.8008 17.5 16.8C18.4722 16.8 19.2986 17.15 19.9792 17.85C20.6597 18.55 21 19.4 21 20.4C21 21.4 20.6597 22.25 19.9792 22.95C19.2986 23.65 18.4722 24 17.5 24Z" fill="#3F3F3F" fill-opacity="0.7"/>
</svg>
