<svg width="33" height="31" viewBox="0 0 33 31" fill="none" xmlns="http://www.w3.org/2000/svg">
<path d="M16.2869 31C14.3233 31 13.0132 30.0716 11.8434 29.2538C11.0118 28.6641 10.233 28.104 9.31391 27.9487C8.87634 27.8733 8.43295 27.8368 7.98895 27.8397C7.21015 27.8397 6.59139 27.957 6.15084 28.0462C5.87034 28.0958 5.63604 28.142 5.45124 28.142C5.25984 28.142 5.01728 28.0892 4.92323 27.7654C4.84073 27.501 4.78958 27.2499 4.73843 27.0071C4.60643 26.3958 4.49588 26.0208 4.26653 25.9828C1.80966 25.6078 0.339503 25.0412 0.0524014 24.3705C0.0293013 24.2978 0.00125125 24.2218 0.00125125 24.164C-0.0152489 23.9591 0.133252 23.789 0.339503 23.751C2.28817 23.4288 4.03883 22.3897 5.51724 20.6815C6.66564 19.355 7.225 18.073 7.27615 17.9342C7.27615 17.9177 7.291 17.9177 7.291 17.9177C7.5715 17.3379 7.62925 16.8439 7.4593 16.4392C7.1425 15.6792 6.09804 15.3554 5.38524 15.1341C5.20208 15.0845 5.04698 15.025 4.91498 14.9804C4.30448 14.7376 3.28807 14.2205 3.42172 13.5068C3.51742 12.9914 4.20053 12.623 4.75988 12.623C4.91498 12.623 5.04698 12.6461 5.15588 12.7056C5.78289 12.9914 6.34884 13.1384 6.83395 13.1384C7.43785 13.1384 7.72495 12.9105 7.79755 12.8378C7.78219 12.511 7.76294 12.1844 7.7398 11.8581C7.5913 9.60314 7.423 6.80464 8.1358 5.20053C10.2775 0.398134 14.8233 0.0132159 16.1697 0.0132159L16.7571 0H16.8396C18.1844 0 22.7302 0.375007 24.8719 5.18566C25.5929 6.78977 25.4164 9.59654 25.2679 11.8433L25.253 11.954C25.2398 12.2546 25.2167 12.5421 25.2035 12.8378C25.2761 12.8956 25.5401 13.117 26.0846 13.1236C26.5565 13.1104 27.0713 12.9551 27.6587 12.6891C27.8214 12.6187 27.9964 12.5817 28.1735 12.5801C28.3798 12.5801 28.586 12.6296 28.7626 12.6891H28.7774C29.2708 12.8741 29.5942 13.2194 29.5942 13.5812C29.609 13.9199 29.3434 14.4353 28.0861 14.9441C27.9541 14.9937 27.799 15.0548 27.6158 15.0977C26.9162 15.3125 25.8718 15.6512 25.5401 16.4028C25.357 16.7993 25.4296 17.3081 25.7101 17.883C25.7101 17.8962 25.7249 17.8962 25.7249 17.8962C25.8058 18.1027 27.931 22.9349 32.6616 23.7229C32.7583 23.7392 32.8458 23.79 32.908 23.8659C32.9701 23.9419 33.0028 24.0378 32.9998 24.1359C33.0009 24.2101 32.9834 24.2834 32.9487 24.349C32.6616 25.0263 31.2046 25.5781 28.7329 25.9614C28.5052 25.9977 28.3946 26.3744 28.2626 26.9856C28.2103 27.2404 28.1492 27.4933 28.0795 27.7439C28.0052 27.9867 27.8501 28.1189 27.5845 28.1189H27.5498C27.3146 28.1143 27.0803 28.0872 26.8502 28.0379C26.2455 27.9089 25.6288 27.8447 25.0105 27.8463C24.5671 27.8473 24.1245 27.8843 23.6872 27.957C22.7747 28.1057 21.9876 28.6723 21.156 29.2621C19.9713 30.0716 18.6546 31 16.706 31H16.2869Z" fill="#3F3F3F"/>
</svg>
