<svg width="27" height="31" viewBox="0 0 27 31" fill="none" xmlns="http://www.w3.org/2000/svg">
<path d="M21.4209 4.85667C20.2438 3.51268 19.5952 1.78669 19.5957 0H14.2749V21.3556C14.2338 22.5112 13.746 23.6058 12.9141 24.4089C12.0823 25.212 10.9712 25.6609 9.81505 25.6611C7.3699 25.6611 5.33801 23.6633 5.33801 21.1833C5.33801 18.2211 8.19643 15.9994 11.1409 16.9122V11.47C5.20026 10.6778 0 15.2933 0 21.1833C0 26.9183 4.75255 31 9.79783 31C15.2047 31 19.5957 26.6083 19.5957 21.1833V10.3506C21.7532 11.9003 24.3437 12.7318 27 12.7272V7.40556C27 7.40556 23.7628 7.56056 21.4209 4.85667Z" fill="#3F3F3F"/>
</svg>
