<svg width="22" height="27" viewBox="0 0 22 27" fill="none" xmlns="http://www.w3.org/2000/svg">
<path d="M1.6526 25.9274L1.64866 25.9299C1.58616 25.9706 1.49729 26 1.39219 26C1.25897 26 1.15273 25.9504 1.08544 25.8885C1.01943 25.8277 1 25.7667 1 25.7186V2.53125C1 1.76249 1.7044 1 2.75 1H19.25C20.2956 1 21 1.76249 21 2.53125V25.7186C21 25.7667 20.9806 25.8277 20.9146 25.8885C20.8473 25.9504 20.741 26 20.6078 26C20.5027 26 20.4138 25.9706 20.3513 25.9299L20.3474 25.9274L11.5417 20.2532L11 19.9041L10.4583 20.2532L1.6526 25.9274Z" stroke="#3F3F3F" stroke-opacity="0.7" stroke-width="2"/>
</svg>
