<svg width="40" height="40" viewBox="0 0 40 40" fill="none" xmlns="http://www.w3.org/2000/svg">
<path d="M13.0402 29.3572L13.0368 29.3595C13.0363 29.3597 13.035 29.3603 13.0327 29.361C13.0283 29.3623 13.0214 29.3636 13.0125 29.3636C13.0073 29.3636 13.0032 29.3631 13 29.3624V11.9091C13 11.4507 13.4038 11 14 11H26C26.5962 11 27 11.4507 27 11.9091V29.3624C26.9968 29.3631 26.9927 29.3636 26.9875 29.3636C26.9786 29.3636 26.9717 29.3623 26.9673 29.361C26.965 29.3603 26.9637 29.3597 26.9633 29.3595L26.9598 29.3572L20.5556 25.0776L20 24.7064L19.4444 25.0776L13.0402 29.3572Z" stroke="#3F3F3F" stroke-opacity="0.5" stroke-width="2"/>
</svg>
