<svg width="796" height="860" viewBox="0 0 796 860" fill="none" xmlns="http://www.w3.org/2000/svg">
<path d="M0.740234 194.35L409.33 439.5C463.06 471.74 530.56 470.13 582.69 435.37L795.26 293.66V194.34L582.69 336.05C530.55 370.81 463.06 372.41 409.33 340.18L0.740234 95.0303V194.35Z" fill="black"/>
<path d="M0.740234 392.98L409.33 638.13C463.06 670.37 530.56 668.76 582.69 634L795.26 492.29V392.97L582.69 534.68C530.55 569.44 463.06 571.04 409.33 538.81L0.740234 293.66V392.98Z" fill="black"/>
<path d="M0.740234 591.62L409.33 836.77C463.06 869.01 530.56 867.4 582.69 832.64L795.26 690.93V591.61L582.69 733.32C530.55 768.08 463.06 769.68 409.33 737.45L0.740234 492.3V591.62Z" fill="black"/>
<path d="M199.371 95.0399L298.691 144.7C298.691 144.7 497.321 -4.27007 646.291 144.7C756.601 23.7199 383.321 -84.0501 199.371 95.0399Z" fill="black"/>
</svg>
